<svg width="24" height="24" viewBox="0 0 24 24" fill="none" xmlns="http://www.w3.org/2000/svg">
<path d="M15.2322 4.5H2.9997C2.60188 4.5 2.22034 4.65804 1.93904 4.93934C1.65774 5.22064 1.4997 5.60218 1.4997 6V18C1.49619 18.0725 1.49619 18.145 1.4997 18.2175L15.2322 4.5ZM22.0947 6.0825C21.9755 6.02555 21.8433 6.00111 21.7116 6.01165C21.5799 6.02218 21.4533 6.06732 21.3447 6.1425L17.2497 9.045V7.83L22.4997 2.58L21.4197 1.5L1.4997 21.42L2.5797 22.5L5.5797 19.5H15.7497C16.1475 19.5 16.5291 19.342 16.8104 19.0607C17.0917 18.7794 17.2497 18.3978 17.2497 18V14.955L21.3147 17.8575C21.4266 17.9372 21.5583 17.9846 21.6954 17.9946C21.8324 18.0045 21.9696 17.9766 22.0919 17.9139C22.2141 17.8513 22.3168 17.7562 22.3888 17.6391C22.4607 17.522 22.4991 17.3874 22.4997 17.25V6.75C22.5 6.61228 22.4623 6.47714 22.3909 6.35939C22.3195 6.24165 22.217 6.14585 22.0947 6.0825Z" fill="black"/>
</svg>
