<svg width="24" height="24" viewBox="0 0 24 24" fill="none" xmlns="http://www.w3.org/2000/svg">
<path d="M15.5802 12.7502C15.8513 12.2063 15.9949 11.6078 16.0002 11.0002V6.00017C15.9891 5.01237 15.6129 4.0636 14.9441 3.33662C14.2752 2.60964 13.361 2.15588 12.3775 2.06275C11.3941 1.96961 10.4109 2.2437 9.6175 2.83221C8.82406 3.42071 8.27646 4.28201 8.08019 5.25017M19.0002 11.0002C19.0002 10.735 18.8948 10.4806 18.7073 10.2931C18.5198 10.1055 18.2654 10.0002 18.0002 10.0002C17.735 10.0002 17.4806 10.1055 17.2931 10.2931C17.1055 10.4806 17.0002 10.735 17.0002 11.0002C16.9973 11.8738 16.7589 12.7306 16.3102 13.4802L17.7802 15.0002C18.5849 13.8223 19.0106 12.4267 19.0002 11.0002ZM12.0002 15.0002H12.1602L8.00019 10.8302V11.0002C8.00019 12.061 8.42161 13.0785 9.17176 13.8286C9.9219 14.5787 10.9393 15.0002 12.0002 15.0002ZM20.7102 19.2902L4.71019 3.29017C4.61695 3.19694 4.50626 3.12297 4.38443 3.07251C4.26261 3.02205 4.13204 2.99608 4.00019 2.99608C3.86833 2.99608 3.73776 3.02205 3.61594 3.07251C3.49411 3.12297 3.38342 3.19694 3.29019 3.29017C3.10188 3.47848 2.99609 3.73387 2.99609 4.00017C2.99609 4.26648 3.10188 4.52187 3.29019 4.71017L19.2902 20.7102C19.3831 20.8039 19.4937 20.8783 19.6156 20.9291C19.7375 20.9798 19.8682 21.006 20.0002 21.006C20.1322 21.006 20.2629 20.9798 20.3848 20.9291C20.5066 20.8783 20.6172 20.8039 20.7102 20.7102C20.8039 20.6172 20.8783 20.5066 20.9291 20.3848C20.9798 20.2629 21.006 20.1322 21.006 20.0002C21.006 19.8682 20.9798 19.7375 20.9291 19.6156C20.8783 19.4937 20.8039 19.3831 20.7102 19.2902Z" fill="black"/>
<path d="M15 20H13V17.92C13.5659 17.8412 14.12 17.6935 14.65 17.48L13.05 15.88C12.7058 15.9602 12.3534 16.0005 12 16C10.6739 16 9.40215 15.4732 8.46447 14.5355C7.52678 13.5979 7 12.3261 7 11C7 10.7348 6.89464 10.4804 6.70711 10.2929C6.51957 10.1054 6.26522 10 6 10C5.73478 10 5.48043 10.1054 5.29289 10.2929C5.10536 10.4804 5 10.7348 5 11C5.00197 12.6818 5.60941 14.3068 6.71118 15.5775C7.81295 16.8482 9.3354 17.6797 11 17.92V20H9C8.73478 20 8.48043 20.1054 8.29289 20.2929C8.10536 20.4804 8 20.7348 8 21C8 21.2652 8.10536 21.5196 8.29289 21.7071C8.48043 21.8946 8.73478 22 9 22H15C15.2652 22 15.5196 21.8946 15.7071 21.7071C15.8946 21.5196 16 21.2652 16 21C16 20.7348 15.8946 20.4804 15.7071 20.2929C15.5196 20.1054 15.2652 20 15 20Z" fill="black"/>
</svg>
