<svg width="29" height="28" viewBox="0 0 29 28" fill="none" xmlns="http://www.w3.org/2000/svg">
<path d="M24.8717 12.021C25.0188 11.029 24.9693 10.0177 24.7258 9.04482C24.3928 7.71552 23.7041 6.50196 22.7337 5.53432C21.7662 4.56373 20.5526 3.87487 19.2232 3.54165C18.2503 3.29842 17.239 3.24906 16.2471 3.3964M20.4442 11.5526C20.5257 11.0111 20.4789 10.4581 20.3074 9.93811C20.136 9.41811 19.8447 8.94567 19.4572 8.5589C19.0704 8.17134 18.5979 7.88009 18.0779 7.70864C17.5579 7.5372 17.0049 7.49036 16.4635 7.5719" stroke="#237BFF" stroke-width="2" stroke-linecap="round" stroke-linejoin="round"/>
<path d="M8.88595 5.12988C9.09405 5.12999 9.29834 5.18576 9.47763 5.2914C9.65692 5.39705 9.80469 5.54873 9.90562 5.73072L11.333 8.30088C11.4251 8.46675 11.4754 8.65257 11.4795 8.84224C11.4835 9.03192 11.4413 9.21973 11.3564 9.38938L9.98145 12.1386C9.98145 12.1386 10.3799 14.1873 12.047 15.8545C13.7148 17.5216 15.7565 17.9136 15.7565 17.9136L18.5051 16.5387C18.6749 16.4538 18.8628 16.4116 19.0526 16.4158C19.2424 16.4199 19.4283 16.4703 19.5942 16.5626L22.1725 17.9959C22.3542 18.097 22.5055 18.2449 22.6109 18.4242C22.7162 18.6035 22.7717 18.8076 22.7716 19.0155V21.9754C22.7716 23.4821 21.3716 24.5712 19.9436 24.0888C17.0106 23.0995 12.4583 21.2147 9.57195 18.3296C6.68679 15.4438 4.80262 10.8909 3.8127 7.95788C3.33087 6.52988 4.41937 5.12988 5.9267 5.12988H8.88595Z" fill="#237BFF" stroke="#237BFF" stroke-width="2" stroke-linejoin="round"/>
</svg>
