<svg width="64" height="24" viewBox="0 0 64 24" fill="none" xmlns="http://www.w3.org/2000/svg">
<path d="M59.5577 0.538125L31.9972 19.6658L4.43663 0.538125C3.94424 0.195657 3.2832 0.00392576 2.59485 0.00392576C1.9065 0.00392576 1.24546 0.195657 0.75307 0.538125C0.514643 0.704449 0.325227 0.902972 0.195916 1.12207C0.0666056 1.34117 0 1.57644 0 1.81409C0 2.05175 0.0666056 2.28701 0.195916 2.50611C0.325227 2.72521 0.514643 2.92373 0.75307 3.09006L30.0727 23.4427C30.5876 23.8 31.2782 24 31.9972 24C32.7162 24 33.4068 23.8 33.9217 23.4427L63.2413 3.09398C63.4814 2.92753 63.6722 2.72852 63.8026 2.5087C63.9329 2.28887 64 2.05269 64 1.81409C64 1.57549 63.9329 1.33931 63.8026 1.11948C63.6722 0.899657 63.4814 0.700647 63.2413 0.534198C62.7489 0.19173 62.0879 0 61.3995 0C60.7112 0 60.0501 0.19173 59.5577 0.534198V0.538125Z" fill="currentColor"/>
</svg>
