<svg width="29" height="29" viewBox="0 0 29 29" fill="none" xmlns="http://www.w3.org/2000/svg">
<path d="M4.83366 22.9582C4.16908 22.9582 3.60035 22.7217 3.12749 22.2489C2.65463 21.776 2.4178 21.2069 2.41699 20.5415V8.45817C2.41699 7.79359 2.65383 7.22486 3.12749 6.752C3.60116 6.27914 4.16988 6.04231 4.83366 6.0415H24.167C24.8316 6.0415 25.4007 6.27834 25.8744 6.752C26.348 7.22567 26.5845 7.79439 26.5837 8.45817V20.5415C26.5837 21.2061 26.3472 21.7752 25.8744 22.2489C25.4015 22.7225 24.8324 22.959 24.167 22.9582H4.83366ZM4.83366 20.5415H24.167V8.45817H4.83366V20.5415ZM10.8753 19.3332H18.1253C18.4677 19.3332 18.7549 19.2172 18.9869 18.9852C19.2189 18.7532 19.3345 18.4664 19.3337 18.1248C19.3329 17.7833 19.2169 17.4965 18.9857 17.2645C18.7545 17.0325 18.4677 16.9165 18.1253 16.9165H10.8753C10.533 16.9165 10.2462 17.0325 10.015 17.2645C9.7838 17.4965 9.6678 17.7833 9.66699 18.1248C9.66619 18.4664 9.78219 18.7536 10.015 18.9864C10.2478 19.2192 10.5346 19.3348 10.8753 19.3332ZM7.25033 12.0832C7.59269 12.0832 7.87987 11.9672 8.11187 11.7352C8.34387 11.5032 8.45946 11.2164 8.45866 10.8748C8.45785 10.5333 8.34185 10.2465 8.11066 10.0145C7.87946 9.7825 7.59269 9.6665 7.25033 9.6665C6.90796 9.6665 6.62119 9.7825 6.38999 10.0145C6.1588 10.2465 6.0428 10.5333 6.04199 10.8748C6.04119 11.2164 6.15719 11.5036 6.38999 11.7364C6.6228 11.9692 6.90958 12.0848 7.25033 12.0832ZM10.8753 12.0832C11.2177 12.0832 11.5049 11.9672 11.7369 11.7352C11.9689 11.5032 12.0845 11.2164 12.0837 10.8748C12.0829 10.5333 11.9669 10.2465 11.7357 10.0145C11.5045 9.7825 11.2177 9.6665 10.8753 9.6665C10.533 9.6665 10.2462 9.7825 10.015 10.0145C9.7838 10.2465 9.6678 10.5333 9.66699 10.8748C9.66619 11.2164 9.78219 11.5036 10.015 11.7364C10.2478 11.9692 10.5346 12.0848 10.8753 12.0832ZM14.5003 12.0832C14.8427 12.0832 15.1299 11.9672 15.3619 11.7352C15.5939 11.5032 15.7095 11.2164 15.7087 10.8748C15.7079 10.5333 15.5919 10.2465 15.3607 10.0145C15.1295 9.7825 14.8427 9.6665 14.5003 9.6665C14.158 9.6665 13.8712 9.7825 13.64 10.0145C13.4088 10.2465 13.2928 10.5333 13.292 10.8748C13.2912 11.2164 13.4072 11.5036 13.64 11.7364C13.8728 11.9692 14.1596 12.0848 14.5003 12.0832ZM18.1253 12.0832C18.4677 12.0832 18.7549 11.9672 18.9869 11.7352C19.2189 11.5032 19.3345 11.2164 19.3337 10.8748C19.3329 10.5333 19.2169 10.2465 18.9857 10.0145C18.7545 9.7825 18.4677 9.6665 18.1253 9.6665C17.783 9.6665 17.4962 9.7825 17.265 10.0145C17.0338 10.2465 16.9178 10.5333 16.917 10.8748C16.9162 11.2164 17.0322 11.5036 17.265 11.7364C17.4978 11.9692 17.7846 12.0848 18.1253 12.0832ZM21.7503 12.0832C22.0927 12.0832 22.3799 11.9672 22.6119 11.7352C22.8439 11.5032 22.9595 11.2164 22.9587 10.8748C22.9579 10.5333 22.8419 10.2465 22.6107 10.0145C22.3795 9.7825 22.0927 9.6665 21.7503 9.6665C21.408 9.6665 21.1212 9.7825 20.89 10.0145C20.6588 10.2465 20.5428 10.5333 20.542 10.8748C20.5412 11.2164 20.6572 11.5036 20.89 11.7364C21.1228 11.9692 21.4096 12.0848 21.7503 12.0832ZM7.25033 15.7082C7.59269 15.7082 7.87987 15.5922 8.11187 15.3602C8.34387 15.1282 8.45946 14.8414 8.45866 14.4998C8.45785 14.1583 8.34185 13.8715 8.11066 13.6395C7.87946 13.4075 7.59269 13.2915 7.25033 13.2915C6.90796 13.2915 6.62119 13.4075 6.38999 13.6395C6.1588 13.8715 6.0428 14.1583 6.04199 14.4998C6.04119 14.8414 6.15719 15.1286 6.38999 15.3614C6.6228 15.5942 6.90958 15.7098 7.25033 15.7082ZM10.8753 15.7082C11.2177 15.7082 11.5049 15.5922 11.7369 15.3602C11.9689 15.1282 12.0845 14.8414 12.0837 14.4998C12.0829 14.1583 11.9669 13.8715 11.7357 13.6395C11.5045 13.4075 11.2177 13.2915 10.8753 13.2915C10.533 13.2915 10.2462 13.4075 10.015 13.6395C9.7838 13.8715 9.6678 14.1583 9.66699 14.4998C9.66619 14.8414 9.78219 15.1286 10.015 15.3614C10.2478 15.5942 10.5346 15.7098 10.8753 15.7082ZM14.5003 15.7082C14.8427 15.7082 15.1299 15.5922 15.3619 15.3602C15.5939 15.1282 15.7095 14.8414 15.7087 14.4998C15.7079 14.1583 15.5919 13.8715 15.3607 13.6395C15.1295 13.4075 14.8427 13.2915 14.5003 13.2915C14.158 13.2915 13.8712 13.4075 13.64 13.6395C13.4088 13.8715 13.2928 14.1583 13.292 14.4998C13.2912 14.8414 13.4072 15.1286 13.64 15.3614C13.8728 15.5942 14.1596 15.7098 14.5003 15.7082ZM18.1253 15.7082C18.4677 15.7082 18.7549 15.5922 18.9869 15.3602C19.2189 15.1282 19.3345 14.8414 19.3337 14.4998C19.3329 14.1583 19.2169 13.8715 18.9857 13.6395C18.7545 13.4075 18.4677 13.2915 18.1253 13.2915C17.783 13.2915 17.4962 13.4075 17.265 13.6395C17.0338 13.8715 16.9178 14.1583 16.917 14.4998C16.9162 14.8414 17.0322 15.1286 17.265 15.3614C17.4978 15.5942 17.7846 15.7098 18.1253 15.7082ZM21.7503 15.7082C22.0927 15.7082 22.3799 15.5922 22.6119 15.3602C22.8439 15.1282 22.9595 14.8414 22.9587 14.4998C22.9579 14.1583 22.8419 13.8715 22.6107 13.6395C22.3795 13.4075 22.0927 13.2915 21.7503 13.2915C21.408 13.2915 21.1212 13.4075 20.89 13.6395C20.6588 13.8715 20.5428 14.1583 20.542 14.4998C20.5412 14.8414 20.6572 15.1286 20.89 15.3614C21.1228 15.5942 21.4096 15.7098 21.7503 15.7082Z" fill="#A2A2A2"/>
</svg>
