<svg width="29" height="29" viewBox="0 0 29 29" fill="none" xmlns="http://www.w3.org/2000/svg">
<path d="M10.8753 15.7085V18.1252C10.8753 18.4675 10.9913 18.7547 11.2233 18.9867C11.4553 19.2187 11.7421 19.3343 12.0837 19.3335C12.4252 19.3327 12.7124 19.2167 12.9452 18.9855C13.178 18.7543 13.2936 18.4675 13.292 18.1252V15.7085H15.7087C16.051 15.7085 16.3382 15.5925 16.5702 15.3605C16.8022 15.1285 16.9178 14.8417 16.917 14.5002C16.9162 14.1586 16.8002 13.8718 16.569 13.6398C16.3378 13.4078 16.051 13.2918 15.7087 13.2918H13.292V10.8752C13.292 10.5328 13.176 10.246 12.944 10.0148C12.712 9.78364 12.4252 9.66763 12.0837 9.66683C11.7421 9.66602 11.4553 9.78202 11.2233 10.0148C10.9913 10.2476 10.8753 10.5344 10.8753 10.8752V13.2918H8.45866C8.1163 13.2918 7.82952 13.4078 7.59833 13.6398C7.36713 13.8718 7.25113 14.1586 7.25033 14.5002C7.24952 14.8417 7.36552 15.1289 7.59833 15.3617C7.83113 15.5945 8.11791 15.7101 8.45866 15.7085H10.8753ZM4.83366 24.1668C4.16908 24.1668 3.60035 23.9304 3.12749 23.4575C2.65463 22.9847 2.4178 22.4156 2.41699 21.7502V7.25016C2.41699 6.58558 2.65383 6.01686 3.12749 5.544C3.60116 5.07113 4.16988 4.8343 4.83366 4.8335H19.3337C19.9982 4.8335 20.5674 5.07033 21.041 5.544C21.5147 6.01766 21.7511 6.58639 21.7503 7.25016V12.6877L25.5566 8.88141C25.758 8.68002 25.9795 8.62968 26.2212 8.73037C26.4628 8.83107 26.5837 9.02239 26.5837 9.30433V19.696C26.5837 19.9779 26.4628 20.1693 26.2212 20.27C25.9795 20.3706 25.758 20.3203 25.5566 20.1189L21.7503 16.3127V21.7502C21.7503 22.4147 21.5139 22.9839 21.041 23.4575C20.5682 23.9312 19.999 24.1676 19.3337 24.1668H4.83366ZM4.83366 21.7502H19.3337V7.25016H4.83366V21.7502Z" fill="white"/>
</svg>
